# xmcd
#
# Track frame offsets: 
#        193
#        16973
#        26779
#        45266
#        57857
#        70478
#        86359
#        100389
#        116858
#        135071
#        148415
#        164803
#        177970
#        181743
#        194091
#        216048
#        233402
#        245834
#        261685
#        276124
#        294058
#
# Disc length: 4167 seconds
#
# Revision: 0
# Processed by: cddbd v1.5.2PL0 Copyright (c) Steve Scherf et al.
# Submitted via: ExactAudioCopyFreeDBPlugin 1.0
#
DISCID=3b104515
DTITLE=Lil Yachty - Teenage Emotions
DYEAR=2018
DGENRE=Rap
TTITLE0=Like A Star
TTITLE1=DN Freestyle
TTITLE2=Peek A Boo (ft Migos)
TTITLE3=Dirty Mouth
TTITLE4=Harley
TTITLE5=All Around Me (ft YG, Kamaiyah)
TTITLE6=Say My Name
TTITLE7=All You Had To Say
TTITLE8=Better (ft Stefflon Don)
TTITLE9=Forever Young (ft Diplo)
TTITLE10=Lady In Yellow
TTITLE11=Moments In Time
TTITLE12=Otha Shit (Interlude)
TTITLE13=X Men (ft Evander Griiim)
TTITLE14=Bring It Back
TTITLE15=Running With A Ghost (ft Grace)
TTITLE16=FYI (Know Now)
TTITLE17=Priorities
TTITLE18=No More
TTITLE19=Made Of Glass
TTITLE20=Momma (Outro) (ft Sonyae Elise)
EXTD=
EXTT0=
EXTT1=
EXTT2=
EXTT3=
EXTT4=
EXTT5=
EXTT6=
EXTT7=
EXTT8=
EXTT9=
EXTT10=
EXTT11=
EXTT12=
EXTT13=
EXTT14=
EXTT15=
EXTT16=
EXTT17=
EXTT18=
EXTT19=
EXTT20=
PLAYORDER=
